<?xml version="1.0" encoding="UTF-8" ?>
<!DOCTYPE svg PUBLIC "-//W3C//DTD SVG 1.1//EN" "http://www.w3.org/Graphics/SVG/1.1/DTD/svg11.dtd">
<svg width="256pt" height="256pt" viewBox="0 0 256 256" version="1.1" xmlns="http://www.w3.org/2000/svg">
<g id="#bf2431ff">
<path fill="#bf2431" opacity="1.00" d=" M 177.97 3.58 C 182.72 0.91 188.63 -0.26 193.72 2.22 C 211.54 10.71 229.31 19.29 247.08 27.86 C 252.22 30.30 255.59 35.65 256.00 41.27 L 256.00 215.46 C 255.31 221.03 251.83 226.21 246.66 228.52 C 229.06 236.97 211.47 245.48 193.85 253.89 C 188.75 256.36 182.76 255.34 178.02 252.54 C 184.10 255.53 192.40 251.12 192.04 244.04 C 192.08 166.70 192.09 89.35 192.04 12.01 C 192.32 4.92 184.03 0.70 177.97 3.58 Z" />
</g>
<g id="#990011ff">
<path fill="#990011" opacity="1.00" d=" M 165.36 14.35 C 167.34 12.60 169.22 10.35 171.98 9.92 C 176.72 8.95 181.67 13.10 181.33 17.98 C 181.41 37.08 181.23 56.19 181.41 75.29 C 159.18 93.23 136.67 110.85 114.27 128.59 C 100.96 118.51 87.77 108.27 74.68 97.91 C 104.87 70.02 135.15 42.23 165.36 14.35 Z" />
<path fill="#990011" opacity="1.00" d=" M 4.19 162.25 C 15.05 152.94 25.84 143.54 36.72 134.26 C 47.58 144.21 58.51 154.08 69.35 164.05 C 56.59 173.44 43.79 182.78 30.99 192.10 C 27.09 195.08 21.21 194.74 17.64 191.39 C 12.90 187.10 8.15 182.81 3.45 178.48 C 1.48 176.74 0.46 174.25 0.00 171.71 L 0.00 170.22 C 0.24 167.11 1.74 164.18 4.19 162.25 Z" />
</g>
<g id="#b2000fff">
<path fill="#b2000f" opacity="1.00" d=" M 20.04 63.12 C 23.70 61.26 28.40 61.82 31.55 64.46 C 45.93 75.61 60.30 86.76 74.68 97.91 C 87.77 108.27 100.96 118.51 114.27 128.59 C 136.59 146.03 159.06 163.27 181.36 180.73 C 181.27 200.16 181.44 219.59 181.27 239.01 C 181.13 245.38 172.32 248.71 167.95 244.09 C 113.16 193.88 58.40 143.64 3.63 93.41 C 1.62 91.67 0.51 89.20 0.00 86.64 L 0.00 84.40 C 0.66 78.62 6.06 75.60 9.81 71.87 C 13.25 69.00 16.19 65.47 20.04 63.12 Z" />
</g>
</svg>
